<?xml version="1.0" standalone="no"?>
<!DOCTYPE svg PUBLIC "-//W3C//DTD SVG 20010904//EN"
 "http://www.w3.org/TR/2001/REC-SVG-20010904/DTD/svg10.dtd">
<svg version="1.0" xmlns="http://www.w3.org/2000/svg"
 width="354.000000pt" height="354.000000pt" viewBox="0 0 354.000000 354.000000"
 preserveAspectRatio="xMidYMid meet">
<metadata>
</metadata>
<g transform="translate(0.000000,354.000000) scale(0.100000,-0.100000)"
fill="#000000" stroke="none">
<path d="M2270 3454 c-85 -13 -236 -32 -335 -44 -99 -11 -229 -27 -290 -34
-60 -8 -153 -20 -205 -26 -52 -6 -124 -16 -160 -21 -36 -6 -101 -14 -145 -19
-164 -17 -361 -41 -377 -46 -22 -7 -22 0 1 -148 11 -66 27 -193 36 -281 9 -88
23 -198 30 -245 8 -47 17 -124 20 -173 3 -48 11 -101 17 -117 9 -27 14 -30 51
-30 23 0 82 7 131 16 102 18 119 14 114 -22 -3 -26 -24 -40 -193 -129 -16 -9
-43 -24 -60 -35 -16 -11 -37 -23 -45 -27 -8 -4 -23 -15 -34 -24 -10 -10 -76
-47 -147 -84 -70 -36 -131 -70 -134 -75 -4 -6 -15 -10 -26 -10 -16 0 -19 -7
-19 -55 0 -30 4 -55 8 -55 5 0 16 -33 26 -72 29 -116 31 -118 132 -118 81 0
154 19 154 39 0 4 19 16 43 26 23 10 53 26 67 35 14 10 72 46 130 80 101 60
130 77 212 122 71 40 78 21 78 -231 0 -123 5 -192 15 -231 9 -32 15 -100 15
-162 0 -94 3 -112 25 -157 26 -50 26 -52 19 -220 -4 -93 -10 -174 -13 -179
-16 -23 -100 -52 -152 -52 -53 0 -143 23 -164 41 -5 5 -41 9 -80 9 -106 0
-136 -30 -100 -99 16 -33 48 -49 165 -85 236 -72 429 -100 634 -93 130 4 170
10 290 41 76 20 151 36 166 36 14 0 30 4 35 9 11 11 176 38 300 51 107 10 285
38 364 56 74 17 108 33 135 63 11 12 25 21 33 21 10 0 13 21 13 90 0 62 -4 90
-12 90 -6 0 -19 7 -28 15 -10 9 -42 24 -73 35 -50 18 -65 19 -133 9 -42 -6
-134 -28 -204 -50 -130 -40 -203 -49 -217 -26 -12 18 -62 276 -63 321 0 27 8
47 25 68 29 35 29 35 -25 158 -28 64 -41 109 -49 180 -6 52 -16 133 -21 179
-6 46 -10 137 -10 203 l0 118 32 0 c34 0 364 -83 493 -124 44 -14 89 -26 101
-26 21 0 107 59 131 90 22 27 9 228 -15 252 -5 5 -105 33 -223 63 -331 84
-314 78 -317 106 -2 20 5 28 43 47 25 12 52 22 59 22 8 0 24 8 36 18 l21 17
-15 115 c-31 224 -46 326 -65 430 -11 58 -25 150 -31 205 -14 125 -28 175 -49
174 -9 -1 -86 -12 -171 -25z"/>
</g>
</svg>
